<?xml version="1.0" encoding="UTF-8"?>
<svg width="176px" height="176px" viewBox="0 0 176 176" version="1.1" xmlns="http://www.w3.org/2000/svg" xmlns:xlink="http://www.w3.org/1999/xlink">
    <title>Group 4</title>
    <g id="final2" stroke="none" stroke-width="1" fill="none" fill-rule="evenodd">
        <g id="Group-4">
            <circle id="Oval" stroke="#979797" stroke-width="0.5" fill="#DD2828" cx="88" cy="88" r="87.75"></circle>
            <path d="M87.5,23 L54.7496639,77.0931369 C54.2666689,77.8908911 53.8166258,78.7081363 53.4006712,79.5428086 L48.8635561,88.6471794 C46.6582137,93.0725147 45.4423118,97.9247627 45.3002472,102.867125 L45.1636974,107.61763 C45.055318,111.388102 45.5737095,115.150405 46.6977262,118.75107 L46.9683403,119.617954 C48.1450721,123.387486 49.9680584,126.923797 52.3559045,130.068994 L54.2983164,132.627479 C57.147623,136.380497 60.7443253,139.501793 64.8612005,141.794179 L70.0719281,144.69565 C75.1413128,147.518418 80.8475157,149 86.6498154,149 L90.0147339,149 C96.1140121,149 102.1015,147.362965 107.352328,144.259741 L110.932788,142.1437 C115.196796,139.623683 118.860201,136.204426 121.667857,132.124068 L123.357409,129.668648 C125.34255,126.783651 126.871111,123.609887 127.889248,120.259158 L128.52807,118.15677 C129.504,114.944944 130,111.606541 130,108.249718 L130,103.392239 C130,98.1128257 128.77332,92.9056171 126.416719,88.1813562 L121.482755,78.2902725 L121.482755,78.2902725 L87.5,23 Z" id="Path" stroke="#FFFFFF" stroke-width="12"></path>
            <g id="Group-3" transform="translate(123.000000, 98.000000) scale(-1, 1) translate(-123.000000, -98.000000) translate(91.000000, 84.000000)" fill="#D8D8D8" stroke="#DD2828" stroke-linecap="square" stroke-width="14">
                <line x1="6.63872483e-15" y1="2.11555748e-15" x2="64" y2="28" id="Line"></line>
            </g>
            <g id="Group-3" transform="translate(111.000000, 101.500000) scale(-1, 1) translate(-111.000000, -101.500000) translate(78.000000, 89.000000)" stroke="#FFFFFF" stroke-linecap="square" stroke-width="10">
                <line x1="3.282576e-14" y1="4.45843873e-15" x2="56.8251121" y2="24.7126437" id="Line" fill="#D8D8D8"></line>
                <line x1="57.7130045" y1="25" x2="66.0000001" y2="7.75862054" id="Line-2"></line>
            </g>
        </g>
    </g>
</svg>